<svg id="Capa_1" enable-background="new 0 0 512 512" height="512" viewBox="0 0 512 512" width="512" xmlns="http://www.w3.org/2000/svg"><path d="m389.921 178.51 8.3-8.3c2.81-2.82 4.4-6.63 4.4-10.61v-74.125l43.802-43.802c5.853-5.852 5.859-15.355 0-21.213l-16.067-16.066c-5.858-5.859-15.355-5.857-21.213 0-5.857 5.858-5.857 15.355 0 21.213l5.46 5.46-86.062 86.063z"/><path d="m152.381 319.25-102.87 102.88c-3.02 3.01-4.6 7.17-4.37 11.43.24 4.26 2.28 8.22 5.61 10.89l80.33 64.26c2.69 2.15 6 3.29 9.37 3.29 3.36 0 9.98-1.41 13.42-8.29l58.94-117.88-49.81-49.81c-4.82-4.82-8.41-10.53-10.62-16.77z"/><path d="m451.881 224.93h-18.83c-11.31 0-22.3-1.97-32.61-5.75-1.89 6.67-5.47 12.78-10.52 17.82l-57.43 57.43c27.32 16.15 58.57 24.77 91.15 24.77h28.24c8.29 0 15-6.72 15-15v-64.27c0-8.28-6.71-15-15-15z"/><path d="m302.921 324-65.36 65.36 13.85 41.56c2.74 8.24 11.99 12.54 20.14 9.05l49.67-17.55c7.17-3.07 10.79-11.13 8.33-18.53z"/><path d="m368.711 199.719-61.379-61.38-123.122 123.121c-2.813 2.813-4.394 6.628-4.394 10.606v32.134c0 3.979 1.581 7.794 4.394 10.606l42.74 42.739 141.761-141.761c4.436-4.435 4.436-11.629 0-16.065z"/></svg>